#!OML:ASF G:\JayActor3\Patient Classification 1\Patient 1\Session 6\male.ASF
:FULLY-SPECIFIED
:DEGREES
668
root 9.39864 15.0127 -5.20183 11.8792 -12.6193 -0.477613
lowerback 22.6055 0.266856 5.69291
upperback 9.73854 1.5183 3.60429
thorax -1.88281 0.769881 0.277764
lowerneck 6.11036 -9.63544 -1.43399
upperneck 0.589149 -13.1317 -8.43321
head -1.35365 -6.40127 -1.9806
rclavicle 4.85035e-014 2.22639e-014
rhumerus 14.2337 -9.0416 -52.9914
rradius 75.5275
rwrist 10.6298
rhand -60.1741 10.6298
rfingers 7.12502
rthumb -32.3176 -16.512
lclavicle 4.85035e-014 2.22639e-014
lhumerus 24.7542 8.05903 60.1772
lradius 126.499
lwrist 13.4878
lhand -44.7793 -9.09168
lfingers 7.12502
lthumb -17.5712 20.1343
rfemur -53.5472 -13.3224 26.1595
rtibia 67.264
rfoot -26.8167 -12.5264
rtoes -2.49059
lfemur -47.8039 5.58449 -26.202
ltibia 59.8996
lfoot -23.1873 3.74449
ltoes -4.93586
669
root 9.40618 14.9568 -5.23343 12.1495 -12.5123 -0.238458
lowerback 23.0451 0.277785 5.81861
upperback 9.83756 1.58348 3.5751
thorax -1.98287 0.80356 0.156983
lowerneck 6.12939 -9.67923 -1.3848
upperneck 0.262013 -13.213 -8.28261
head -1.45698 -6.43271 -1.9284
rclavicle -7.15625e-015 -1.43125e-014
rhumerus 14.5357 -9.26861 -53.3144
rradius 75.1237
rwrist 10.9312
rhand -60.2345 10.9794
rfingers 7.12502
rthumb -32.375 -16.1506
lclavicle -7.15625e-015 -1.43125e-014
lhumerus 24.5344 7.98792 60.3262
lradius 126.851
lwrist 13.0648
lhand -45.495 -10.2934
lfingers 7.12502
lthumb -18.2599 18.8695
rfemur -54.6069 -13.422 26.0626
rtibia 68.1472
rfoot -26.9657 -12.5675
rtoes -2.68427
lfemur -48.7748 5.36242 -26.5214
ltibia 60.6883
lfoot -23.3275 3.83528
ltoes -4.98961
670
root 9.41365 14.9014 -5.26407 12.4077 -12.4047 0.0103233
lowerback 23.4947 0.273228 5.9642
upperback 9.94246 1.63326 3.52385
thorax -2.07879 0.830782 0.00429125
lowerneck 6.13597 -9.72162 -1.32869
upperneck -0.0676456 -13.2903 -8.11174
head -1.55789 -6.46329 -1.87171
rclavicle 2.14687e-014 3.18055e-015
rhumerus 14.8472 -9.4859 -53.6609
rradius 74.6948
rwrist 11.2316
rhand -60.2546 11.3156
rfingers 7.12502
rthumb -32.3941 -15.8105
lclavicle 2.14687e-014 3.18055e-015
lhumerus 24.3137 7.88226 60.4413
lradius 127.202
lwrist 12.6091
lhand -46.1431 -11.4018
lfingers 7.12502
lthumb -18.8833 17.7016
rfemur -55.6437 -13.5246 25.9513
rtibia 69.0141
rfoot -27.1105 -12.6015
rtoes -2.86084
lfemur -49.7175 5.14561 -26.8492
ltibia 61.4544
lfoot -23.4562 3.91178
ltoes -5.04648
671
root 9.42089 14.8469 -5.29372 12.6486 -12.3017 0.266275
lowerback 23.9549 0.26108 6.10702
upperback 10.0571 1.67361 3.46736
thorax -2.1677 0.853612 -0.150778
lowerneck 6.13268 -9.76254 -1.27604
upperneck -0.405258 -13.3654 -7.93161
head -1.65879 -6.4935 -1.81202
rclavicle 2.22639e-014 -6.36111e-015
rhumerus 15.1775 -9.68543 -54.0057
rradius 74.2401
rwrist 11.5236
rhand -60.2419 11.6359
rfingers 7.12502
rthumb -32.3821 -15.4926
lclavicle 2.22639e-014 -6.36111e-015
lhumerus 24.0896 7.74837 60.5429
lradius 127.551
lwrist 12.1263
lhand -46.7307 -12.3971
lfingers 7.12502
lthumb -19.4484 16.6503
rfemur -56.6494 -13.6251 25.8259
rtibia 69.862
rfoot -27.2506 -12.6271
rtoes -3.01418
lfemur -50.6253 4.9394 -27.1826
ltibia 62.1976
lfoot -23.5723 3.97276
ltoes -5.10524
672
root 9.42761 14.7935 -5.32234 12.8707 -12.2095 0.524181
lowerback 24.4252 0.251552 6.2354
upperback 10.1827 1.71528 3.41567
thorax -2.24837 0.876839 -0.293393
lowerneck 6.12061 -9.80536 -1.2207
upperneck -0.749603 -13.4428 -7.75473
head -1.76115 -6.52542 -1.75394
rclavicle 2.22639e-014 2.38542e-014
rhumerus 15.5213 -9.87051 -54.3287
rradius 73.7622
rwrist 11.8001
rhand -60.2046 11.9361
rfingers 7.12502
rthumb -32.3466 -15.1998
lclavicle 2.22639e-014 2.38542e-014
lhumerus 23.869 7.58016 60.6461
lradius 127.895
lwrist 11.6299
lhand -47.2604 -13.2667
lfingers 7.12502
lthumb -19.9576 15.7284
rfemur -57.6181 -13.7168 25.6909
rtibia 70.6882
rfoot -27.3854 -12.6435
rtoes -3.13974
lfemur -51.4958 4.75249 -27.5166
ltibia 62.9197
lfoot -23.677 4.0149
ltoes -5.161
673
root 9.43358 14.7412 -5.34987 13.0779 -12.1319 0.778339
lowerback 24.9008 0.255038 6.34748
upperback 10.3178 1.77077 3.37336
thorax -2.31959 0.906452 -0.420696
lowerneck 6.09908 -9.85632 -1.14548
upperneck -1.09508 -13.5299 -7.59304
head -1.86565 -6.56266 -1.7037
rclavicle -1.43125e-014 1.43125e-014
rhumerus 15.8647 -10.0544 -54.6159
rradius 73.2645
rwrist 12.059
rhand -60.1519 12.2021
rfingers 7.12502
rthumb -32.2964 -14.944
lclavicle -1.43125e-014 1.43125e-014
lhumerus 23.6648 7.36377 60.7604
lradius 128.23
lwrist 11.1384
lhand -47.7317 -14.0098
lfingers 7.12502
lthumb -20.4106 14.9375
rfemur -58.5513 -13.794 25.5526
rtibia 71.4911
rfoot -27.514 -12.6501
rtoes -3.23395
lfemur -52.3338 4.59208 -27.8465
ltibia 63.6235
lfoot -23.7724 4.03415
ltoes -5.20496
674
root 9.43866 14.69 -5.37629 13.2782 -12.0704 1.02293
lowerback 25.3743 0.279066 6.45354
upperback 10.4589 1.85109 3.33696
thorax -2.38034 0.9482 -0.545203
lowerneck 6.06417 -9.92304 -1.02423
upperneck -1.432 -13.6345 -7.45484
head -1.97149 -6.60947 -1.668
rclavicle 4.6118e-014 3.65764e-014
rhumerus 16.1883 -10.2592 -54.8657
rradius 72.7506
rwrist 12.3043
rhand -60.0881 12.4323
rfingers 7.12502
rthumb -32.2357 -14.7261
lclavicle 4.6118e-014 3.65764e-014
lhumerus 23.4946 7.08073 60.8842
lradius 128.551
lwrist 10.6727
lhand -48.1422 -14.6434
lfingers 7.12502
lthumb -20.8051 14.2612
rfemur -59.4567 -13.8539 25.4194
rtibia 72.271
rfoot -27.6353 -12.6469
rtoes -3.29603
lfemur -53.1497 4.46204 -28.1677
ltibia 64.3129
lfoot -23.8613 4.02775
ltoes -5.22737
